HIERARCHY
ROOT Hips
{
	OFFSET 0.00000 0.00000 0.00000
	CHANNELS 6 Xposition Yposition Zposition Zrotation Yrotation Xrotation 
	JOINT LHipJoint
	{
		OFFSET 0 0 0
		CHANNELS 3 Zrotation Yrotation Xrotation
		JOINT LeftUpLeg
		{
			OFFSET 1.78158 -1.79992 1.25746
			CHANNELS 3 Zrotation Yrotation Xrotation
			JOINT LeftLeg
			{
				OFFSET 2.48433 -6.82566 0.00000
				CHANNELS 3 Zrotation Yrotation Xrotation
				JOINT LeftFoot
				{
					OFFSET 2.69722 -7.41057 0.00000
					CHANNELS 3 Zrotation Yrotation Xrotation
					JOINT LeftToeBase
					{
						OFFSET 0.10733 -0.29489 1.75071
						CHANNELS 3 Zrotation Yrotation Xrotation
						End Site
						{
							OFFSET 0.00000 -0.00000 0.90224
						}
					}
				}
			}
		}
	}
	JOINT RHipJoint
	{
		OFFSET 0 0 0
		CHANNELS 3 Zrotation Yrotation Xrotation
		JOINT RightUpLeg
		{
			OFFSET -1.91234 -1.79993 1.25746
			CHANNELS 3 Zrotation Yrotation Xrotation
			JOINT RightLeg
			{
				OFFSET -2.33122 -6.40498 0.00000
				CHANNELS 3 Zrotation Yrotation Xrotation
				JOINT RightFoot
				{
					OFFSET -2.75667 -7.57390 0.00000
					CHANNELS 3 Zrotation Yrotation Xrotation
					JOINT RightToeBase
					{
						OFFSET -0.15946 -0.43811 1.78925
						CHANNELS 3 Zrotation Yrotation Xrotation
						End Site
						{
							OFFSET -0.00000 -0.00000 0.93158
						}
					}
				}
			}
		}
	}
	JOINT LowerBack
	{
		OFFSET 0 0 0
		CHANNELS 3 Zrotation Yrotation Xrotation
		JOINT Spine
		{
			OFFSET -0.02267 2.03993 -0.26238
			CHANNELS 3 Zrotation Yrotation Xrotation
			JOINT Spine1
			{
				OFFSET 0.02263 2.06220 -0.00892
				CHANNELS 3 Zrotation Yrotation Xrotation
				JOINT Neck
				{
					OFFSET 0 0 0
					CHANNELS 3 Zrotation Yrotation Xrotation
					JOINT Neck1
					{
						OFFSET -0.06177 1.95978 0.28606
						CHANNELS 3 Zrotation Yrotation Xrotation
						JOINT Head
						{
							OFFSET 0.08482 1.96576 -0.43252
							CHANNELS 3 Zrotation Yrotation Xrotation
							End Site
							{
								OFFSET 0.02787 2.02739 -0.18071
							}
						}
					}
				}
				JOINT LeftShoulder
				{
					OFFSET 0 0 0
					CHANNELS 3 Zrotation Yrotation Xrotation
					JOINT LeftArm
					{
						OFFSET 3.80978 1.64906 0.29973
						CHANNELS 3 Zrotation Yrotation Xrotation
						JOINT LeftForeArm
						{
							OFFSET 4.93042 -0.00000 0.00000
							CHANNELS 3 Zrotation Yrotation Xrotation
							JOINT LeftHand
							{
								OFFSET 3.68177 -0.00000 0.00000
								CHANNELS 3 Zrotation Yrotation Xrotation
								JOINT LeftFingerBase
								{
									OFFSET 0 0 0
									CHANNELS 3 Zrotation Yrotation Xrotation
									JOINT LeftHandIndex1
									{
										OFFSET 0.72148 -0.00000 0.00000
										CHANNELS 3 Zrotation Yrotation Xrotation
										End Site
										{
											OFFSET 0.58168 -0.00000 0.00000
										}
									}
								}
								JOINT LThumb
								{
									OFFSET 0 0 0
									CHANNELS 3 Zrotation Yrotation Xrotation
									End Site
									{
										OFFSET 0.59056 -0.00000 0.59056
									}
								}
							}
						}
					}
				}
				JOINT RightShoulder
				{
					OFFSET 0 0 0
					CHANNELS 3 Zrotation Yrotation Xrotation
					JOINT RightArm
					{
						OFFSET -3.49270 1.85636 0.09297
						CHANNELS 3 Zrotation Yrotation Xrotation
						JOINT RightForeArm
						{
							OFFSET -5.07905 -0.00000 -0.00000
							CHANNELS 3 Zrotation Yrotation Xrotation
							JOINT RightHand
							{
								OFFSET -3.54394 -0.00000 0.00000
								CHANNELS 3 Zrotation Yrotation Xrotation
								JOINT RightFingerBase
								{
									OFFSET 0 0 0
									CHANNELS 3 Zrotation Yrotation Xrotation
									JOINT RightHandIndex1
									{
										OFFSET -0.68116 -0.00000 0.00000
										CHANNELS 3 Zrotation Yrotation Xrotation
										End Site
										{
											OFFSET -0.54917 -0.00000 0.00000
										}
									}
								}
								JOINT RThumb
								{
									OFFSET 0 0 0
									CHANNELS 3 Zrotation Yrotation Xrotation
									End Site
									{
										OFFSET -0.55755 -0.00000 0.55755
									}
								}
							}
						}
					}
				}
			}
		}
	}
}
MOTION
Frames: 16
Frame Time: .0083333
-11.7664 18.1386 -17.605 0 0 0 0 0 0 -21 0 0 0 0 0 0 0 0 0 0 0 0 0 0 21 0 0 0 0 0 0 0 0 0 0 0 0 0 0 0 0 0 0 0 0 0 0 -16 0 0 21 0 0 11 0 0 0 -8 0 0 0 0 0 0 0 0 0 0 0 0 0 0 0 0 0 0 0 0 8 0 0 0 0 0 0 0 0 0 0 0 0 0 0 0 0 0
-11.7664 18.1386 -17.6050 -93.4584 86.2238 -89.1036 0.0000 0.0000 0.0000 -11.9505 -11.7281 -10.6421 1.7127 8.2401 23.4457 1.0472 -4.4748 -18.3650 1.4518 7.6161 21.5541 0.0000 0.0000 0.0000 14.7511 -2.8255 0.2431 0.0000 0.0000 -0.0000 0.3229 -14.4396 -16.3880 -0.1888 2.7982 -7.7175 0.3233 0.3027 9.1944 2.2469 0.6017 -0.9925 2.0842 0.3354 -6.2279 -7.3376 -5.4834 -21.8783 6.5550 -7.0203 33.5021 2.7606 -2.6676 16.1799 -0.0000 -0.0000 0.0000 -87.0888 2.5559 19.5106 13.9543 -22.6694 -2.8105 -0.0000 0.0000 -13.2216 31.1974 8.2937 4.9921 -7.1250 0.0000 -0.0000 3.7854 39.6238 -0.5024 -0.0000 -0.0000 0.0000 84.5735 -1.6530 6.8689 -17.9868 28.1403 -4.5430 0.0000 0.0000 23.3536 -18.4159 -12.6850 4.1818 7.1250 -0.0000 -0.0000 8.0640 -43.1807 0.3646
-11.7122 18.1168 -17.5986 -91.6686 86.1631 -87.4589 0.0000 0.0000 0.0000 -11.9094 -11.5367 -10.6079 1.7934 8.4218 24.0029 1.0844 -4.7027 -18.6774 1.3419 7.3344 20.7100 0.0000 0.0000 0.0000 14.7828 -2.6267 0.0429 0.0000 -0.0000 0.0000 0.2367 -13.5847 -16.1748 -0.2261 3.0610 -8.4486 0.4252 0.3638 9.1131 2.1787 0.6886 -1.0212 1.9427 0.3730 -6.2127 -7.3892 -5.5149 -21.8541 6.5459 -7.0445 33.5781 2.7637 -2.6838 16.2168 -0.0000 -0.0000 0.0000 -87.0022 2.3898 19.9981 14.3820 -23.2782 -2.9774 -0.0000 0.0000 -13.7671 31.2204 8.2701 4.9826 -7.1250 0.0000 -0.0000 3.8060 39.5985 -0.5075 -0.0000 -0.0000 0.0000 84.5956 -1.8327 7.4641 -17.9325 28.0707 -4.5174 0.0000 0.0000 23.2010 -18.4162 -12.6901 4.1835 7.1250 -0.0000 -0.0000 8.0649 -43.1861 0.3635
-11.6595 18.0971 -17.5840 -89.9716 86.1470 -85.9091 0.0000 0.0000 0.0000 -11.8956 -11.2852 -10.4870 1.8447 8.5349 24.3509 1.1097 -4.8502 -18.8879 1.2117 6.9831 19.6652 0.0000 0.0000 0.0000 14.7889 -2.4728 -0.0348 0.0000 0.0000 -0.0000 0.1329 -12.2973 -15.6140 -0.1169 2.2039 -6.0694 0.4726 0.4292 9.0390 2.1031 0.7745 -1.0490 1.8246 0.4117 -6.2007 -7.5007 -5.5486 -21.8677 6.5878 -7.0655 33.6678 2.8004 -2.6985 16.2753 0.0000 -0.0000 0.0000 -86.9574 2.2086 20.3886 14.8093 -23.8797 -3.1483 -0.0000 0.0000 -14.2232 31.2658 8.2172 4.9599 -7.1250 0.0000 -0.0000 3.8465 39.5411 -0.5184 0.0000 -0.0000 0.0000 84.5746 -2.0412 8.3005 -17.8615 27.9795 -4.4841 0.0000 0.0000 22.9283 -18.3990 -12.7714 4.2056 7.1250 -0.0000 -0.0000 8.0971 -43.2685 0.3484
-11.6085 18.0799 -17.5611 -88.2818 86.2023 -84.3709 0.0000 0.0000 0.0000 -11.9350 -11.0142 -10.3390 1.8867 8.6259 24.6320 1.1307 -4.9885 -19.0605 1.0832 6.6151 18.5800 0.0000 0.0000 0.0000 14.7482 -2.3684 0.0240 0.0000 0.0000 -0.0000 0.0614 -10.9815 -14.6861 -0.0065 0.5212 -1.4321 0.4355 0.5042 8.9741 2.0170 0.8629 -1.0755 1.7429 0.4542 -6.1934 -7.6484 -5.5872 -21.9072 6.6423 -7.0827 33.7623 2.8498 -2.7143 16.3449 0.0000 -0.0000 0.0000 -86.9504 2.0182 20.7199 15.2270 -24.4614 -3.3194 -0.0000 0.0000 -14.5907 31.3096 8.1481 4.9271 -7.1250 0.0000 -0.0000 3.8857 39.4648 -0.5310 0.0000 -0.0000 0.0000 84.5623 -2.2299 9.1417 -17.7576 27.8457 -4.4354 0.0000 0.0000 22.7447 -18.3275 -12.9286 4.2386 7.1250 -0.0000 -0.0000 8.1941 -43.4234 0.3211
-11.5582 18.0652 -17.5308 -86.5873 86.3495 -82.8299 0.0000 0.0000 0.0000 -12.0581 -10.7420 -10.1129 1.9071 8.6697 24.7676 1.1455 -5.1028 -19.1793 0.9807 6.3038 17.6684 0.0000 0.0000 0.0000 14.6486 -2.3177 0.2073 0.0000 0.0000 -0.0000 0.0463 -10.0447 -13.5269 -0.0399 -1.2894 3.5454 0.3095 0.5876 8.9094 1.9117 0.9512 -1.1023 1.6914 0.4992 -6.1874 -7.7906 -5.6248 -21.9564 6.6676 -7.0889 33.8530 2.8874 -2.7292 16.4121 -0.0000 -0.0000 0.0000 -86.9653 1.8361 21.0487 15.6351 -25.0234 -3.4902 -0.0000 0.0000 -14.8936 31.3334 8.0807 4.8914 -7.1250 0.0000 -0.0000 3.9072 39.3887 -0.5413 -0.0000 -0.0000 0.0000 84.6156 -2.3507 9.7267 -17.5859 27.6237 -4.3555 0.0000 0.0000 22.8648 -18.1967 -13.1105 4.2643 7.1250 -0.0000 -0.0000 8.3502 -43.5972 0.2912
-11.5078 18.0527 -17.4946 -85.0504 86.5877 -81.4459 0.0000 0.0000 0.0000 -12.2711 -10.5145 -9.8041 1.9088 8.6735 24.7793 1.1565 -5.1980 -19.2668 0.9211 6.1148 17.1178 0.0000 0.0000 0.0000 14.4974 -2.3297 0.4871 0.0000 -0.0000 0.0000 0.0751 -9.6579 -12.3964 -0.1502 -2.4970 6.8815 0.1238 0.6690 8.8346 1.7789 1.0282 -1.1306 1.6467 0.5401 -6.1774 -7.8905 -5.6503 -22.0014 6.6401 -7.0738 33.9325 2.8982 -2.7380 16.4653 -0.0000 -0.0000 0.0000 -86.9861 1.6775 21.4024 16.0322 -25.5643 -3.6598 -0.0000 0.0000 -15.1504 31.3340 8.0258 4.8586 -7.1250 0.0000 -0.0000 3.9083 39.3250 -0.5475 -0.0000 -0.0000 0.0000 84.7566 -2.3880 9.9512 -17.3173 27.2742 -4.2317 0.0000 0.0000 23.3447 -18.0502 -13.2504 4.2718 7.1250 -0.0000 -0.0000 8.5123 -43.7254 0.2698
-11.4564 18.0417 -17.4545 -84.0783 86.8889 -80.6290 0.0000 0.0000 0.0000 -12.5482 -10.3779 -9.4148 1.8979 8.6501 24.7068 1.1667 -5.2671 -19.3492 0.9087 6.0745 17.0008 0.0000 0.0000 0.0000 14.3228 -2.4174 0.8322 0.0000 0.0000 -0.0000 0.1245 -9.7476 -11.5265 -0.1796 -2.7299 7.5277 -0.0660 0.7317 8.7481 1.6181 1.0782 -1.1591 1.5788 0.5672 -6.1598 -7.9346 -5.6539 -22.0357 6.5656 -7.0305 33.9943 2.8838 -2.7351 16.4985 0.0000 0.0000 0.0000 -87.0115 1.5425 21.7468 16.4048 -26.0665 -3.8221 -0.0000 0.0000 -15.3511 31.3220 7.9795 4.8287 -7.1250 0.0000 -0.0000 3.8983 39.2701 -0.5514 0.0000 0.0000 0.0000 84.9475 -2.3773 9.9866 -16.9548 26.7982 -4.0669 0.0000 0.0000 23.9806 -17.9682 -13.3177 4.2723 7.1250 -0.0000 -0.0000 8.6008 -43.7858 0.2598
-11.4040 18.0316 -17.4119 -84.3202 87.2032 -81.0362 0.0000 0.0000 0.0000 -12.8368 -10.3620 -8.9550 1.8815 8.6148 24.5975 1.1787 -5.2966 -19.4491 0.9334 6.1541 17.2322 0.0000 0.0000 0.0000 14.1662 -2.5903 1.2162 0.0000 -0.0000 0.0000 0.1776 -10.1317 -11.0220 -0.1003 -2.0423 5.6226 -0.1993 0.7601 8.6618 1.4409 1.0882 -1.1840 1.4679 0.5724 -6.1360 -7.9389 -5.6326 -22.0607 6.4756 -6.9603 34.0337 2.8604 -2.7189 16.5121 0.0000 0.0000 0.0000 -87.0614 1.4121 21.9949 16.7242 -26.4928 -3.9635 -0.0000 0.0000 -15.4601 31.3133 7.9278 4.7961 -7.1250 0.0000 -0.0000 3.8912 39.2093 -0.5562 0.0000 0.0000 0.0000 85.0981 -2.3948 10.2578 -16.5405 26.2480 -3.8819 0.0000 0.0000 24.3456 -18.0285 -13.3505 4.2979 7.1250 -0.0000 -0.0000 8.5536 -43.8263 0.2497
-11.3513 18.0222 -17.3675 -86.4656 87.4709 -83.3658 0.0000 0.0000 0.0000 -13.0744 -10.4684 -8.4425 1.8659 8.5809 24.4930 1.1938 -5.2774 -19.5794 0.9746 6.2849 17.6132 0.0000 0.0000 0.0000 14.0702 -2.8448 1.6189 0.0000 -0.0000 0.0000 0.2244 -10.6179 -10.8637 -0.0163 -0.8234 2.2629 -0.2350 0.7469 8.5955 1.2697 1.0545 -1.2009 1.3142 0.5531 -6.1121 -7.9389 -5.5926 -22.0824 6.4087 -6.8728 34.0476 2.8494 -2.6922 16.5113 -0.0000 -0.0000 0.0000 -87.1725 1.2577 22.0502 16.9545 -26.7977 -4.0668 -0.0000 0.0000 -15.4398 31.3187 7.8562 4.7543 -7.1250 0.0000 -0.0000 3.8966 39.1268 -0.5649 -0.0000 -0.0000 0.0000 85.1056 -2.5224 11.2602 -16.1435 25.7148 -3.7080 0.0000 0.0000 23.9694 -18.2598 -13.4429 4.3862 7.1250 -0.0000 -0.0000 8.3654 -43.9475 0.2189
-11.2998 18.0131 -17.3215 -90.7137 87.6394 -87.8191 0.0000 0.0000 0.0000 -13.2118 -10.6702 -7.9042 1.8549 8.5570 24.4191 1.2123 -5.2142 -19.7403 1.0102 6.3951 17.9352 0.0000 0.0000 0.0000 14.0640 -3.1606 2.0222 0.0000 0.0000 -0.0000 0.2570 -11.0404 -10.9514 -0.0037 0.3906 -1.0733 -0.1657 0.6968 8.5659 1.1308 0.9854 -1.2074 1.1396 0.5137 -6.0964 -7.9680 -5.5463 -22.1060 6.3879 -6.7814 34.0357 2.8638 -2.6618 16.5016 0.0000 0.0000 0.0000 -87.3824 1.0579 21.8638 17.0682 -26.9476 -4.1182 -0.0000 0.0000 -15.2822 31.3401 7.7636 4.7028 -7.1250 0.0000 -0.0000 3.9159 39.0211 -0.5779 0.0000 0.0000 0.0000 84.9067 -2.8001 13.2700 -15.8359 25.2976 -3.5756 0.0000 0.0000 22.6143 -18.6166 -13.6881 4.5576 7.1250 -0.0000 -0.0000 8.0963 -44.2416 0.1526
-11.2507 18.0045 -17.2741 -96.2827 87.6839 -93.6043 0.0000 0.0000 0.0000 -13.2306 -10.9229 -7.3729 1.8490 8.5443 24.3798 1.2329 -5.1263 -19.9205 1.0258 6.4427 18.0744 0.0000 0.0000 0.0000 14.1544 -3.5052 2.4056 0.0000 0.0000 -0.0000 0.2719 -11.2973 -11.1439 -0.0353 1.2128 -3.3345 -0.0174 0.6231 8.5748 1.0444 0.8974 -1.2055 0.9779 0.4635 -6.0935 -8.0384 -5.5054 -22.1322 6.4061 -6.6965 34.0004 2.9004 -2.6344 16.4856 -0.0000 0.0000 0.0000 -87.7098 0.8131 21.4723 17.0604 -26.9373 -4.1146 -0.0000 0.0000 -15.0306 31.3716 7.6672 4.6507 -7.1250 0.0000 -0.0000 3.9441 38.9116 -0.5927 -0.0000 0.0000 0.0000 84.5205 -3.1883 16.0869 -15.6540 25.0493 -3.4982 0.0000 0.0000 20.5079 -18.9932 -14.1079 4.7957 7.1250 -0.0000 -0.0000 7.8464 -44.7208 0.0544
-11.2045 17.9967 -17.2257 -101.8620 87.6234 -99.3885 0.0000 0.0000 0.0000 -13.1492 -11.1822 -6.8818 1.8461 8.5378 24.3600 1.2538 -5.0394 -20.1021 1.0209 6.4279 18.0311 0.0000 0.0000 0.0000 14.3221 -3.8455 2.7455 0.0000 0.0000 -0.0000 0.2732 -11.3839 -11.3028 -0.0594 1.5731 -4.3274 0.1638 0.5424 8.6036 1.0166 0.8078 -1.2016 0.8589 0.4127 -6.1011 -8.1347 -5.4767 -22.1566 6.4295 -6.6219 33.9471 2.9409 -2.6144 16.4627 -0.0000 0.0000 0.0000 -88.1430 0.5489 20.9976 16.9506 -26.7926 -4.0650 -0.0000 0.0000 -14.7791 31.4045 7.5963 4.6140 -7.1250 0.0000 -0.0000 3.9731 38.8318 -0.6048 -0.0000 0.0000 0.0000 84.0634 -3.5662 19.0087 -15.5533 24.9112 -3.4556 0.0000 0.0000 18.3488 -19.2604 -14.6138 5.0381 7.1250 -0.0000 -0.0000 7.7155 -45.2781 -0.0533
-11.1609 17.9898 -17.1772 -106.7400 87.5108 -104.4310 0.0000 0.0000 0.0000 -13.0151 -11.4198 -6.4560 1.8421 8.5292 24.3333 1.2731 -4.9744 -20.2679 1.0072 6.3860 17.9085 0.0000 0.0000 0.0000 14.5266 -4.1600 3.0187 0.0000 -0.0000 0.0000 0.2711 -11.3793 -11.3430 -0.0658 1.6546 -4.5519 0.3313 0.4671 8.6186 1.0360 0.7270 -1.2041 0.7958 0.3677 -6.1093 -8.2232 -5.4599 -22.1735 6.4170 -6.5554 33.8831 2.9618 -2.6023 16.4310 0.0000 -0.0000 0.0000 -88.6411 0.3062 20.6058 16.7744 -26.5594 -3.9859 -0.0000 0.0000 -14.6454 31.4285 7.5781 4.6074 -7.1250 0.0000 -0.0000 3.9942 38.8126 -0.6100 0.0000 -0.0000 0.0000 83.7163 -3.7796 21.1235 -15.4062 24.7089 -3.3939 0.0000 0.0000 17.0065 -19.3120 -15.0316 5.1930 7.1250 -0.0000 -0.0000 7.7643 -45.7182 -0.1385
-11.1188 17.9843 -17.1299 -111.1560 87.4019 -108.9470 0.0000 0.0000 0.0000 -12.8856 -11.6308 -6.1057 1.8332 8.5096 24.2730 1.2894 -4.9370 -20.4059 0.9985 6.3590 17.8296 0.0000 0.0000 0.0000 14.7191 -4.4463 3.2105 0.0000 0.0000 -0.0000 0.2742 -11.3781 -11.2648 -0.0705 1.7132 -4.7136 0.4540 0.4006 8.5849 1.0783 0.6543 -1.2204 0.7812 0.3287 -6.1056 -8.2705 -5.4499 -22.1807 6.3425 -6.4930 33.8180 2.9470 -2.5956 16.3919 -0.0000 0.0000 0.0000 -89.1481 0.1224 20.4432 16.5666 -26.2829 -3.8935 -0.0000 0.0000 -14.7262 31.4303 7.6222 4.6343 -7.1250 0.0000 -0.0000 3.9954 38.8640 -0.6051 -0.0000 0.0000 0.0000 83.5434 -3.7932 22.1753 -15.1438 24.3461 -3.2850 0.0000 0.0000 16.6762 -19.1614 -15.2918 5.2361 7.1250 -0.0000 -0.0000 7.9650 -45.9690 -0.1917
-11.0771 17.9804 -17.0844 -115.8130 87.3273 -113.6300 0.0000 0.0000 0.0000 -12.8059 -11.8285 -5.8236 1.8167 8.4734 24.1613 1.3019 -4.9162 -20.5101 1.0013 6.3677 17.8552 0.0000 0.0000 0.0000 14.8592 -4.7196 3.3218 0.0000 0.0000 -0.0000 0.2834 -11.4234 -11.1397 -0.0872 1.9046 -5.2422 0.5219 0.3372 8.4843 1.1162 0.5789 -1.2537 0.7933 0.2901 -6.0824 -8.2600 -5.4408 -22.1834 6.2081 -6.4332 33.7620 2.8955 -2.5907 16.3507 0.0000 0.0000 0.0000 -89.6121 0.0147 20.5750 16.3490 -25.9916 -3.7976 -0.0000 0.0000 -15.0497 31.3905 7.7115 4.6808 -7.1250 0.0000 -0.0000 3.9603 38.9647 -0.5900 0.0000 0.0000 0.0000 83.8221 -3.4236 20.9350 -14.5796 23.5572 -3.0559 0.0000 0.0000 18.4963 -18.7539 -15.0677 5.0441 7.1250 -0.0000 -0.0000 8.2873 -45.6853 -0.1411
